<svg width="0" height="0" class="hidden">
  <symbol xmlns="http://www.w3.org/2000/svg" viewBox="0 0 11 20" id="facebook">
    <path fill-rule="evenodd" clip-rule="evenodd" d="M11 0H8C5.23858 0 3 2.23858 3 5V8H0V12H3V20H7V12H10L11 8H7V5C7 4.44772 7.44772 4 8 4H11V0Z"></path>
  </symbol>

  <symbol xmlns="http://www.w3.org/2000/svg" viewBox="0 0 20 17" id="twitter">
    <path fill-rule="evenodd" clip-rule="evenodd" d="M20 0.00932958C19.1294 0.6234 18.1656 1.09307 17.1455 1.40024C16.024 0.110728 14.2167 -0.341476 12.6201 0.267924C11.0234 0.877323 9.97709 2.41869 10 4.12751V5.0366C6.75515 5.12074 3.68366 3.57476 1.81818 0.91842C1.81818 0.91842 -1.81818 9.10024 6.36364 12.7366C4.49139 14.0075 2.26105 14.6447 0 14.5548C8.18182 19.1002 18.1818 14.5548 18.1818 4.10024C18.181 3.84701 18.1566 3.59442 18.1091 3.34569C19.0369 2.43069 19.6917 1.27543 20 0.00932958Z"></path>
  </symbol>

  <symbol xmlns="http://www.w3.org/2000/svg" viewBox="0 0 48 10" id="burger">
    <rect width="48" height="2"></rect>
    <rect y="8" width="48" height="2"></rect>
  </symbol>

  <symbol fill="none" xmlns="http://www.w3.org/2000/svg" viewBox="0 0 16 16" id="arrow-left">
    <path d="M15 8H1" stroke="white" stroke-width="2" stroke-linecap="round" stroke-linejoin="round"></path>
    <path d="M8 15L1 8L8 1" stroke="white" stroke-width="2" stroke-linecap="round" stroke-linejoin="round"></path>
  </symbol>

  <symbol fill="none" xmlns="http://www.w3.org/2000/svg" viewBox="0 0 16 16" id="arrow-right">
    <path d="M1 8H15" stroke="white" stroke-width="2" stroke-linecap="round" stroke-linejoin="round"></path>
    <path d="M8 1L15 8L8 15" stroke="white" stroke-width="2" stroke-linecap="round" stroke-linejoin="round"></path>
  </symbol>

  <symbol fill="none" xmlns="http://www.w3.org/2000/svg" viewBox="0 0 34 44" id="play">
    <path fill-rule="evenodd" clip-rule="evenodd" d="M1 1.00002L33 21.5714L1 42.1429V1.5V1.00002Z" stroke="white" stroke-width="2" stroke-linecap="round" stroke-linejoin="round"></path>
  </symbol>

  <symbol fill="none" xmlns="http://www.w3.org/2000/svg" viewBox="0 0 20 20" id="search">
    <path fill-rule="evenodd" clip-rule="evenodd" d="M9 17C13.4183 17 17 13.4183 17 9C17 4.58172 13.4183 1 9 1C4.58172 1 1 4.58172 1 9C1 13.4183 4.58172 17 9 17Z" stroke="black" stroke-width="2" stroke-linecap="round" stroke-linejoin="round"></path>
    <path d="M19 19L14.65 14.65" stroke="black" stroke-width="2" stroke-linecap="round" stroke-linejoin="round"></path>
  </symbol>

  <symbol fill="none" xmlns="http://www.w3.org/2000/svg" viewBox="0 0 24 31" id="playAlt">
    <path fill-rule="evenodd" clip-rule="evenodd" d="M0 0L24 15.4286L0 30.8571V0Z" fill="white"></path>
  </symbol>

  <symbol fill="none" xmlns="http://www.w3.org/2000/svg" viewBox="0 0 20 25" id="play3">
    <path fill-rule="evenodd" clip-rule="evenodd" d="M2 2L18 12.2857L2 22.5714V2.18551V2Z" stroke="white" stroke-width="4" stroke-linecap="round" stroke-linejoin="round"></path>
  </symbol>

  <symbol fill="none" xmlns="http://www.w3.org/2000/svg" viewBox="0 0 24 24" id="user">
    <g opacity="0.5">
      <path d="M20 21V19C20 16.7909 18.2091 15 16 15H8C5.79086 15 4 16.7909 4 19V21" stroke="black" stroke-width="2" stroke-linecap="round" stroke-linejoin="round"></path>
      <path fill-rule="evenodd" clip-rule="evenodd" d="M12 11C14.2091 11 16 9.20914 16 7C16 4.79086 14.2091 3 12 3C9.79086 3 8 4.79086 8 7C8 9.20914 9.79086 11 12 11Z" stroke="black" stroke-width="2" stroke-linecap="round" stroke-linejoin="round"></path>
    </g>
  </symbol>
</svg>